<svg width="731" height="776" viewBox="0 0 731 776" fill="none" xmlns="http://www.w3.org/2000/svg">
<path d="M667.09 416.908L667.09 362.873" stroke="white" stroke-width="0.75"/>
<path d="M708.597 376.072C708.334 374.819 707.193 373.873 705.829 373.873C705.517 373.873 705.264 374.119 705.264 374.423C705.264 374.727 705.517 374.972 705.829 374.972C706.763 374.972 707.524 375.712 707.524 376.621C707.524 377.531 706.763 378.27 705.829 378.27C705.517 378.27 705.264 378.516 705.264 378.82C705.264 379.124 705.517 379.37 705.829 379.37C707.193 379.37 708.334 378.424 708.597 377.171H715.998V382.118H685.491V377.171H693.4H695.095C695.407 377.171 695.66 376.925 695.66 376.621C695.66 376.317 695.407 376.072 695.095 376.072H694.069C694.303 375.433 694.925 374.972 695.66 374.972C696.595 374.972 697.355 375.712 697.355 376.621C697.355 377.531 696.595 378.27 695.66 378.27C695.348 378.27 695.095 378.516 695.095 378.82C695.095 379.124 695.348 379.37 695.66 379.37C697.218 379.37 698.485 378.137 698.485 376.621C698.485 375.106 697.218 373.873 695.66 373.873C694.296 373.873 693.155 374.819 692.892 376.072H684.361V383.217V405.204H717.128V383.217V376.072H708.597ZM715.998 404.105H685.491V383.217H715.998V404.105Z" fill="white"/>
<path d="M699.05 374.972C699.984 374.972 700.745 375.712 700.745 376.621C700.745 377.531 699.984 378.27 699.05 378.27C698.738 378.27 698.485 378.516 698.485 378.82C698.485 379.124 698.738 379.37 699.05 379.37C700.607 379.37 701.875 378.137 701.875 376.621C701.875 375.106 700.607 373.873 699.05 373.873C698.738 373.873 698.485 374.119 698.485 374.423C698.485 374.727 698.738 374.972 699.05 374.972Z" fill="white"/>
<path d="M702.439 374.972C703.374 374.972 704.134 375.712 704.134 376.621C704.134 377.531 703.374 378.27 702.439 378.27C702.128 378.27 701.875 378.516 701.875 378.82C701.875 379.124 702.128 379.37 702.439 379.37C703.997 379.37 705.264 378.137 705.264 376.621C705.264 375.106 703.997 373.873 702.439 373.873C702.128 373.873 701.875 374.119 701.875 374.423C701.875 374.727 702.128 374.972 702.439 374.972Z" fill="white"/>
<path d="M689.446 387.614H701.874C702.186 387.614 702.439 387.368 702.439 387.064C702.439 386.76 702.186 386.515 701.874 386.515H689.446C689.134 386.515 688.881 386.76 688.881 387.064C688.881 387.368 689.134 387.614 689.446 387.614Z" fill="white"/>
<path d="M712.043 395.31H703.569C703.257 395.31 703.004 395.555 703.004 395.859C703.004 396.163 703.257 396.409 703.569 396.409H712.043C712.355 396.409 712.608 396.163 712.608 395.859C712.608 395.555 712.355 395.31 712.043 395.31Z" fill="white"/>
<path d="M689.446 392.011H695.095C695.407 392.011 695.66 391.766 695.66 391.462C695.66 391.158 695.407 390.912 695.095 390.912H689.446C689.134 390.912 688.881 391.158 688.881 391.462C688.881 391.766 689.134 392.011 689.446 392.011Z" fill="white"/>
<path d="M712.043 399.707H706.394C706.082 399.707 705.829 399.953 705.829 400.257C705.829 400.561 706.082 400.806 706.394 400.806H712.043C712.355 400.806 712.608 400.561 712.608 400.257C712.608 399.953 712.355 399.707 712.043 399.707Z" fill="white"/>
<path d="M700.18 391.462C700.18 391.766 700.433 392.011 700.745 392.011H709.219C709.531 392.011 709.784 391.766 709.784 391.462C709.784 391.158 709.531 390.912 709.219 390.912H700.745C700.433 390.912 700.18 391.158 700.18 391.462Z" fill="white"/>
<path d="M698.321 391.853C698.423 391.749 698.485 391.606 698.485 391.463C698.485 391.319 698.423 391.176 698.321 391.072C698.112 390.869 697.728 390.869 697.519 391.072C697.417 391.176 697.355 391.319 697.355 391.463C697.355 391.606 697.417 391.749 697.519 391.853C697.626 391.957 697.773 392.012 697.92 392.012C698.067 392.012 698.214 391.957 698.321 391.853Z" fill="white"/>
<path d="M691.706 395.859C691.706 396.163 691.959 396.409 692.271 396.409H700.745C701.056 396.409 701.31 396.163 701.31 395.859C701.31 395.555 701.056 395.31 700.745 395.31H692.271C691.959 395.31 691.706 395.555 691.706 395.859Z" fill="white"/>
<path d="M689.446 396.409C689.593 396.409 689.74 396.349 689.847 396.25C689.949 396.145 690.011 396.002 690.011 395.86C690.011 395.716 689.949 395.573 689.847 395.475C689.638 395.266 689.254 395.266 689.045 395.469C688.943 395.573 688.881 395.716 688.881 395.86C688.881 396.002 688.943 396.145 689.045 396.25C689.152 396.349 689.293 396.409 689.446 396.409Z" fill="white"/>
<path d="M712.043 392.012C712.19 392.012 712.337 391.957 712.445 391.853C712.552 391.749 712.608 391.606 712.608 391.463C712.608 391.319 712.552 391.176 712.445 391.072C712.23 390.869 711.851 390.869 711.642 391.072C711.541 391.176 711.479 391.319 711.479 391.463C711.479 391.606 711.541 391.749 711.642 391.853C711.75 391.957 711.897 392.012 712.043 392.012Z" fill="white"/>
<path d="M703.569 399.707H689.446C689.134 399.707 688.881 399.953 688.881 400.257C688.881 400.561 689.134 400.806 689.446 400.806H703.569C703.881 400.806 704.134 400.561 704.134 400.257C704.134 399.953 703.881 399.707 703.569 399.707Z" fill="white"/>
<g opacity="0.05">
<g clip-path="url(#clip0)">
<path d="M1.25674 477.034H-55.741V749.151H1.25674V477.034Z" fill="#333333"/>
<path d="M259.128 646.375H202.13V779.674H259.128V646.375Z" fill="#333333"/>
<path d="M228.038 639.649H202.13V647.237H228.038V639.649Z" fill="#333333"/>
<path d="M217.157 635.338H202.13V639.649H217.157V635.338Z" fill="#333333"/>
<path opacity="0.06" d="M235.293 655.687H225.966V662.584H235.293V655.687Z" fill="white"/>
<path opacity="0.12" d="M235.293 672.758H225.966V679.656H235.293V672.758Z" fill="white"/>
<path opacity="0.19" d="M235.293 706.903H225.966V713.8H235.293V706.903Z" fill="white"/>
<path opacity="0.14" d="M235.293 741.046H225.966V747.944H235.293V741.046Z" fill="white"/>
<path opacity="0.1" d="M235.293 758.118H225.966V765.016H235.293V758.118Z" fill="white"/>
<path d="M116.116 660.859H38.0461V732.251H116.116V660.859Z" fill="#333333"/>
<path d="M103.853 654.479H50.482V685.174H103.853V654.479Z" fill="#333333"/>
<path d="M121.815 705.867H43.7458V777.259H121.815V705.867Z" fill="#333333"/>
<path d="M109.38 699.487H56.009V730.182H109.38V699.487Z" fill="#333333"/>
<path d="M225.793 696.383H147.724V778.639H225.793V696.383Z" fill="#333333"/>
<path d="M213.53 689.14H160.159V724.664H213.53V689.14Z" fill="#333333"/>
<path d="M487.119 721.388H409.049V800.885H487.119V721.388Z" fill="#333333"/>
<path d="M474.856 714.318H421.485V748.634H474.856V714.318Z" fill="#333333"/>
<path d="M317.853 557.221H230.629V778.467H317.853V557.221Z" fill="#333333"/>
<path opacity="0.46" d="M256.019 567.223H234.947V571.189H256.019V567.223Z" fill="#E6E6E6"/>
<path opacity="0.34" d="M284.863 567.223H263.792V571.189H284.863V567.223Z" fill="#E6E6E6"/>
<path opacity="0.52" d="M313.535 567.223H292.463V571.189H313.535V567.223Z" fill="#E6E6E6"/>
<path opacity="0.54" d="M256.019 576.362H234.947V580.328H256.019V576.362Z" fill="#E6E6E6"/>
<path opacity="0.3" d="M284.863 576.362H263.792V580.328H284.863V576.362Z" fill="#E6E6E6"/>
<path opacity="0.06" d="M313.535 576.362H292.463V580.328H313.535V576.362Z" fill="#E6E6E6"/>
<path opacity="0.15" d="M256.019 585.502H234.947V589.468H256.019V585.502Z" fill="#E6E6E6"/>
<path opacity="0.42" d="M284.863 585.502H263.792V589.468H284.863V585.502Z" fill="#E6E6E6"/>
<path opacity="0.48" d="M313.535 585.502H292.463V589.468H313.535V585.502Z" fill="#E6E6E6"/>
<path opacity="0.18" d="M256.019 594.641H234.947V598.607H256.019V594.641Z" fill="#E6E6E6"/>
<path opacity="0.28" d="M313.535 594.641H292.463V598.607H313.535V594.641Z" fill="#E6E6E6"/>
<path opacity="0.29" d="M256.019 603.781H234.947V607.747H256.019V603.781Z" fill="#E6E6E6"/>
<path opacity="0.28" d="M284.863 603.781H263.792V607.747H284.863V603.781Z" fill="#E6E6E6"/>
<path opacity="0.56" d="M313.535 603.781H292.463V607.747H313.535V603.781Z" fill="#E6E6E6"/>
<path opacity="0.41" d="M256.019 612.921H234.947V616.887H256.019V612.921Z" fill="#E6E6E6"/>
<path opacity="0.16" d="M284.863 612.921H263.792V616.887H284.863V612.921Z" fill="#E6E6E6"/>
<path opacity="0.4" d="M313.535 612.921H292.463V616.887H313.535V612.921Z" fill="#E6E6E6"/>
<path opacity="0.1" d="M256.019 622.06H234.947V626.026H256.019V622.06Z" fill="#E6E6E6"/>
<path opacity="0.17" d="M284.863 622.06H263.792V626.026H284.863V622.06Z" fill="#E6E6E6"/>
<path opacity="0.08" d="M313.535 622.06H292.463V626.026H313.535V622.06Z" fill="#E6E6E6"/>
<path opacity="0.49" d="M256.019 631.2H234.947V635.166H256.019V631.2Z" fill="#E6E6E6"/>
<path opacity="0.58" d="M284.863 631.2H263.792V635.166H284.863V631.2Z" fill="#E6E6E6"/>
<path opacity="0.58" d="M313.535 631.2H292.463V635.166H313.535V631.2Z" fill="#E6E6E6"/>
<path opacity="0.26" d="M256.019 640.339H234.947V644.305H256.019V640.339Z" fill="#E6E6E6"/>
<path opacity="0.37" d="M284.863 640.339H263.792V644.305H284.863V640.339Z" fill="#E6E6E6"/>
<path opacity="0.34" d="M313.535 640.339H292.463V644.305H313.535V640.339Z" fill="#E6E6E6"/>
<path opacity="0.55" d="M256.019 649.479H234.947V653.445H256.019V649.479Z" fill="#E6E6E6"/>
<path opacity="0.12" d="M284.863 649.479H263.792V653.445H284.863V649.479Z" fill="#E6E6E6"/>
<path opacity="0.6" d="M313.535 649.479H292.463V653.445H313.535V649.479Z" fill="#E6E6E6"/>
<path opacity="0.02" d="M256.019 658.618H234.947V662.584H256.019V658.618Z" fill="#E6E6E6"/>
<path opacity="0.28" d="M284.863 658.618H263.792V662.584H284.863V658.618Z" fill="#E6E6E6"/>
<path opacity="0.21" d="M313.535 658.618H292.463V662.584H313.535V658.618Z" fill="#E6E6E6"/>
<path opacity="0.57" d="M256.019 667.758H234.947V671.724H256.019V667.758Z" fill="#E6E6E6"/>
<path opacity="0.38" d="M284.863 667.758H263.792V671.724H284.863V667.758Z" fill="#E6E6E6"/>
<path opacity="0.25" d="M313.535 667.758H292.463V671.724H313.535V667.758Z" fill="#E6E6E6"/>
<path opacity="0.15" d="M256.019 676.897H234.947V680.863H256.019V676.897Z" fill="#E6E6E6"/>
<path opacity="0.47" d="M284.863 676.897H263.792V680.863H284.863V676.897Z" fill="#E6E6E6"/>
<path opacity="0.3" d="M313.535 676.897H292.463V680.863H313.535V676.897Z" fill="#E6E6E6"/>
<path opacity="0.4" d="M256.019 686.037H234.947V690.003H256.019V686.037Z" fill="#E6E6E6"/>
<path opacity="0.39" d="M284.863 686.037H263.792V690.003H284.863V686.037Z" fill="#E6E6E6"/>
<path opacity="0.24" d="M313.535 686.037H292.463V690.003H313.535V686.037Z" fill="#E6E6E6"/>
<path opacity="0.46" d="M256.019 695.176H234.947V699.143H256.019V695.176Z" fill="#E6E6E6"/>
<path opacity="0.22" d="M284.863 695.176H263.792V699.143H284.863V695.176Z" fill="#E6E6E6"/>
<path opacity="0.11" d="M313.535 695.176H292.463V699.143H313.535V695.176Z" fill="#E6E6E6"/>
<path opacity="0.11" d="M284.863 704.316H263.792V708.282H284.863V704.316Z" fill="#E6E6E6"/>
<path opacity="0.02" d="M313.535 704.316H292.463V708.282H313.535V704.316Z" fill="#E6E6E6"/>
<path opacity="0.27" d="M256.019 713.456H234.947V717.422H256.019V713.456Z" fill="#E6E6E6"/>
<path opacity="0.21" d="M284.863 713.456H263.792V717.422H284.863V713.456Z" fill="#E6E6E6"/>
<path opacity="0.49" d="M313.535 713.456H292.463V717.422H313.535V713.456Z" fill="#E6E6E6"/>
<path opacity="0.6" d="M256.019 722.595H234.947V726.561H256.019V722.595Z" fill="#E6E6E6"/>
<path opacity="0.31" d="M284.863 722.595H263.792V726.561H284.863V722.595Z" fill="#E6E6E6"/>
<path opacity="0.22" d="M313.535 722.595H292.463V726.561H313.535V722.595Z" fill="#E6E6E6"/>
<path opacity="0.54" d="M256.019 731.735H234.947V735.701H256.019V731.735Z" fill="#E6E6E6"/>
<path opacity="0.6" d="M284.863 731.735H263.792V735.701H284.863V731.735Z" fill="#E6E6E6"/>
<path opacity="0.08" d="M313.535 731.735H292.463V735.701H313.535V731.735Z" fill="#E6E6E6"/>
<path opacity="0.55" d="M284.863 740.874H263.792V744.84H284.863V740.874Z" fill="#E6E6E6"/>
<path d="M313.535 740.874H292.463V744.84H313.535V740.874Z" fill="#E6E6E6"/>
<path opacity="0.6" d="M257.401 567.223H256.019V744.84H257.401V567.223Z" fill="#E6E6E6"/>
<path opacity="0.6" d="M292.463 567.223H291.081V744.84H292.463V567.223Z" fill="#E6E6E6"/>
<path d="M361.378 557.221H317.853V778.467H361.378V557.221Z" fill="#4D4D4D"/>
<path opacity="0.69" d="M354.988 567.223H322.171V571.189H354.988V567.223Z" fill="#E6E6E6"/>
<path opacity="0.79" d="M354.988 576.362H322.171V580.328H354.988V576.362Z" fill="#E6E6E6"/>
<path opacity="0.19" d="M354.988 585.502H322.171V589.468H354.988V585.502Z" fill="#E6E6E6"/>
<path opacity="0.88" d="M354.988 594.641H322.171V598.607H354.988V594.641Z" fill="#E6E6E6"/>
<path opacity="0.5" d="M354.988 603.781H322.171V607.747H354.988V603.781Z" fill="#E6E6E6"/>
<path opacity="0.25" d="M354.988 612.921H322.171V616.887H354.988V612.921Z" fill="#E6E6E6"/>
<path opacity="0.91" d="M354.988 622.06H322.171V626.026H354.988V622.06Z" fill="#E6E6E6"/>
<path opacity="0.02" d="M354.988 631.2H322.171V635.166H354.988V631.2Z" fill="#E6E6E6"/>
<path opacity="0.53" d="M354.988 640.339H322.171V644.305H354.988V640.339Z" fill="#E6E6E6"/>
<path opacity="0.65" d="M354.988 649.479H322.171V653.445H354.988V649.479Z" fill="#E6E6E6"/>
<path d="M354.988 658.618H322.171V662.584H354.988V658.618Z" fill="#E6E6E6"/>
<path opacity="0.8" d="M354.988 667.758H322.171V671.724H354.988V667.758Z" fill="#E6E6E6"/>
<path opacity="0.82" d="M354.988 676.897H322.171V680.863H354.988V676.897Z" fill="#E6E6E6"/>
<path opacity="0.75" d="M354.988 686.037H322.171V690.003H354.988V686.037Z" fill="#E6E6E6"/>
<path opacity="0.31" d="M354.988 695.176H322.171V699.143H354.988V695.176Z" fill="#E6E6E6"/>
<path opacity="0.22" d="M354.988 704.316H322.171V708.282H354.988V704.316Z" fill="#E6E6E6"/>
<path opacity="0.43" d="M354.988 713.456H322.171V717.422H354.988V713.456Z" fill="#E6E6E6"/>
<path opacity="0.68" d="M354.988 722.595H322.171V726.561H354.988V722.595Z" fill="#E6E6E6"/>
<path opacity="0.38" d="M354.988 731.735H322.171V735.701H354.988V731.735Z" fill="#E6E6E6"/>
<path opacity="0.84" d="M354.988 740.874H322.171V744.84H354.988V740.874Z" fill="#E6E6E6"/>
<path d="M246.001 545.494V557.221H302.481V545.494H246.001ZM258.61 553.427H252.737V549.461H258.61V553.427ZM267.764 553.427H262.064V549.461H267.764V553.427ZM277.091 553.427H271.391V549.461H277.091V553.427ZM286.418 553.427H280.545V549.461H286.418V553.427ZM295.745 553.427H289.872V549.461H295.745V553.427Z" fill="#333333"/>
<path d="M312.844 549.461H311.29V553.427H312.844V549.461Z" fill="#333333"/>
<path d="M302.481 545.494V557.221H329.08V545.494H302.481ZM312.844 553.427H307.144V549.461H312.844V553.427ZM325.107 553.427H319.408V549.461H325.107V553.427Z" fill="#4D4D4D"/>
<path d="M324.935 549.461H323.38V553.427H324.935V549.461Z" fill="#333333"/>
<path d="M329.425 793.469H211.976L329.425 706.902V793.469Z" fill="#333333"/>
<path d="M154.287 510.316H144.787V546.357H154.287V510.316Z" fill="#4D4D4D"/>
<path d="M144.96 510.316H135.288V546.357H144.96V510.316Z" fill="#333333"/>
<path d="M164.132 510.316H154.46V546.357H164.132V510.316Z" fill="#666666"/>
<path d="M192.113 571.016H165.168V776.57H192.113V571.016Z" fill="#666666"/>
<path d="M133.561 571.016H110.071V776.57H133.561V571.016Z" fill="#333333"/>
<path d="M165.168 571.016H133.388V776.57H165.168V571.016Z" fill="#4D4D4D"/>
<path opacity="0.6" d="M116.807 577.052H113.352V773.811H116.807V577.052Z" fill="#E6E6E6"/>
<path opacity="0.6" d="M123.543 577.052H120.088V773.811H123.543V577.052Z" fill="#E6E6E6"/>
<path opacity="0.6" d="M130.279 577.052H126.825V773.811H130.279V577.052Z" fill="#E6E6E6"/>
<path d="M170.523 577.052H167.068V773.811H170.523V577.052Z" fill="#E6E6E6"/>
<path d="M177.259 577.052H173.804V773.811H177.259V577.052Z" fill="#E6E6E6"/>
<path d="M190.385 577.052H186.931V773.811H190.385V577.052Z" fill="#E6E6E6"/>
<path d="M183.995 577.052H180.54V773.811H183.995V577.052Z" fill="#E6E6E6"/>
<path opacity="0.8" d="M137.36 773.811H161.196V577.052H137.36V773.811ZM141.16 580.5H157.396V770.362H141.16V580.5Z" fill="#E6E6E6"/>
<path opacity="0.8" d="M144.269 767.085H154.46V583.604H144.269V767.085ZM147.724 587.915H148.933H149.624H151.005V762.774H149.624H148.933H147.724V587.915Z" fill="#E6E6E6"/>
<path opacity="0.8" d="M149.624 587.916H148.933V762.774H149.624V587.916Z" fill="#E6E6E6"/>
<path d="M161.541 534.975H137.706V571.016H161.541V534.975Z" fill="#4D4D4D"/>
<path d="M161.541 534.975H137.706V571.016H161.541V534.975Z" fill="#4D4D4D"/>
<path d="M185.377 534.975H161.541V571.016H185.377V534.975Z" fill="#666666"/>
<path d="M137.706 534.975H113.87V571.016H137.706V534.975Z" fill="#333333"/>
<path d="M163.959 510.316H135.288L144.787 516.869H154.46L163.959 510.316Z" fill="#808080"/>
<path d="M676.42 497.037H662.603V537.562H676.42V497.037Z" fill="#4D4D4D"/>
<path d="M662.43 497.037H648.612V537.562H662.43V497.037Z" fill="#333333"/>
<path d="M690.238 497.037H676.42V537.562H690.238V497.037Z" fill="#666666"/>
<path d="M731 565.498H691.965V797.091H731V565.498Z" fill="#666666"/>
<path d="M646.021 565.498H612.168V797.091H646.021V565.498Z" fill="#333333"/>
<path d="M691.965 565.498H646.022V797.091H691.965V565.498Z" fill="#4D4D4D"/>
<path opacity="0.4" d="M621.841 572.396H616.832V793.987H621.841V572.396Z" fill="#E6E6E6"/>
<path opacity="0.4" d="M631.686 572.396H626.677V793.987H631.686V572.396Z" fill="#E6E6E6"/>
<path opacity="0.4" d="M641.531 572.396H636.522V793.987H641.531V572.396Z" fill="#E6E6E6"/>
<path d="M699.738 572.396H694.729V793.987H699.738V572.396Z" fill="#E6E6E6"/>
<path d="M709.583 572.396H704.574V793.987H709.583V572.396Z" fill="#E6E6E6"/>
<path d="M728.409 572.396H723.4V793.987H728.409V572.396Z" fill="#E6E6E6"/>
<path d="M719.255 572.396H714.246V793.987H719.255V572.396Z" fill="#E6E6E6"/>
<path d="M651.894 793.987H686.438V572.396H651.894V793.987ZM657.248 576.189H680.738V790.193H657.248V576.189Z" fill="#E6E6E6"/>
<path d="M661.566 786.572H676.42V579.811H661.566V786.572ZM666.748 584.639H668.648H669.512H671.411V781.743H669.512H668.648H666.748V584.639Z" fill="#E6E6E6"/>
<path d="M669.512 584.639H668.648V781.743H669.512V584.639Z" fill="#E6E6E6"/>
<path d="M686.784 524.973H652.24V565.498H686.784V524.973Z" fill="#4D4D4D"/>
<path d="M686.784 524.973H652.24V565.498H686.784V524.973Z" fill="#4D4D4D"/>
<path d="M721.328 524.973H686.784V565.498H721.328V524.973Z" fill="#666666"/>
<path d="M652.412 524.973H617.868V565.498H652.412V524.973Z" fill="#333333"/>
<path d="M690.411 497.037H648.612L662.603 504.453H676.42L690.411 497.037Z" fill="#808080"/>
<path d="M576.761 597.572H482.283V628.957H576.761V597.572Z" fill="#E6E6E6"/>
<path d="M519.418 597.572H482.283V628.957H519.418V597.572Z" fill="#B3B3B3"/>
<path d="M519.418 629.129H446.011V781.57H519.418V629.129Z" fill="#333333"/>
<path d="M634.104 629.129H519.418V781.57H634.104V629.129Z" fill="#4D4D4D"/>
<path d="M510.436 613.609H453.957V629.129H510.436V613.609Z" fill="#333333"/>
<path d="M617.005 613.609H536.344V629.129H617.005V613.609Z" fill="#4D4D4D"/>
<path d="M551.716 585.673H519.418V597.572H551.716V585.673Z" fill="#E6E6E6"/>
<path d="M535.481 573.602H519.418V585.501H535.481V573.602Z" fill="#4D4D4D"/>
<path d="M519.245 573.602H503.182V585.501H519.245V573.602Z" fill="#333333"/>
<path d="M519.418 585.673H494.719V597.572H519.418V585.673Z" fill="#B3B3B3"/>
<path d="M518.381 573.602L519.418 546.011L520.281 573.602H518.381Z" fill="#333333"/>
<path opacity="0.12" d="M469.156 635.337H463.111V641.373H469.156V635.337Z" fill="white"/>
<path opacity="0.25" d="M477.447 635.337H471.401V641.373H477.447V635.337Z" fill="white"/>
<path opacity="0.36" d="M485.737 635.337H479.692V641.373H485.737V635.337Z" fill="white"/>
<path opacity="0.12" d="M494.028 635.337H487.982V641.373H494.028V635.337Z" fill="white"/>
<path opacity="0.14" d="M502.318 635.337H496.273V641.373H502.318V635.337Z" fill="white"/>
<path opacity="0.28" d="M469.156 643.27H463.111V649.305H469.156V643.27Z" fill="white"/>
<path opacity="0.4" d="M477.447 643.27H471.401V649.305H477.447V643.27Z" fill="white"/>
<path opacity="0.16" d="M485.737 643.27H479.692V649.305H485.737V643.27Z" fill="white"/>
<path opacity="0.17" d="M502.318 643.27H496.273V649.305H502.318V643.27Z" fill="white"/>
<path opacity="0.27" d="M469.156 651.202H463.111V657.237H469.156V651.202Z" fill="white"/>
<path opacity="0.45" d="M477.447 651.202H471.401V657.237H477.447V651.202Z" fill="white"/>
<path opacity="0.45" d="M485.737 651.202H479.692V657.237H485.737V651.202Z" fill="white"/>
<path opacity="0.48" d="M494.028 651.202H487.982V657.237H494.028V651.202Z" fill="white"/>
<path opacity="0.25" d="M502.318 651.202H496.273V657.237H502.318V651.202Z" fill="white"/>
<path opacity="0.28" d="M469.156 659.134H463.111V665.17H469.156V659.134Z" fill="white"/>
<path opacity="0.13" d="M477.447 659.134H471.401V665.17H477.447V659.134Z" fill="white"/>
<path opacity="0.07" d="M485.737 659.134H479.692V665.17H485.737V659.134Z" fill="white"/>
<path opacity="0.39" d="M494.028 659.134H487.982V665.17H494.028V659.134Z" fill="white"/>
<path opacity="0.47" d="M502.318 659.134H496.273V665.17H502.318V659.134Z" fill="white"/>
<path opacity="0.28" d="M469.156 667.066H463.111V673.102H469.156V667.066Z" fill="white"/>
<path opacity="0.2" d="M477.447 667.066H471.401V673.102H477.447V667.066Z" fill="white"/>
<path opacity="0.04" d="M485.737 667.066H479.692V673.102H485.737V667.066Z" fill="white"/>
<path opacity="0.43" d="M494.028 667.066H487.982V673.102H494.028V667.066Z" fill="white"/>
<path opacity="0.48" d="M502.318 667.066H496.273V673.102H502.318V667.066Z" fill="white"/>
<path opacity="0.28" d="M469.156 674.999H463.111V681.035H469.156V674.999Z" fill="white"/>
<path opacity="0.19" d="M477.447 674.999H471.401V681.035H477.447V674.999Z" fill="white"/>
<path opacity="0.01" d="M485.737 674.999H479.692V681.035H485.737V674.999Z" fill="white"/>
<path opacity="0.27" d="M494.028 674.999H487.982V681.035H494.028V674.999Z" fill="white"/>
<path opacity="0.24" d="M502.318 674.999H496.273V681.035H502.318V674.999Z" fill="white"/>
<path opacity="0.07" d="M469.156 683.104H463.111V689.14H469.156V683.104Z" fill="white"/>
<path opacity="0.25" d="M477.447 683.104H471.401V689.14H477.447V683.104Z" fill="white"/>
<path opacity="0.26" d="M485.737 683.104H479.692V689.14H485.737V683.104Z" fill="white"/>
<path opacity="0.39" d="M494.028 683.104H487.982V689.14H494.028V683.104Z" fill="white"/>
<path opacity="0.22" d="M502.318 683.104H496.273V689.14H502.318V683.104Z" fill="white"/>
<path opacity="0.15" d="M469.156 691.036H463.111V697.072H469.156V691.036Z" fill="white"/>
<path opacity="0.23" d="M477.447 691.036H471.401V697.072H477.447V691.036Z" fill="white"/>
<path opacity="0.05" d="M485.737 691.036H479.692V697.072H485.737V691.036Z" fill="white"/>
<path opacity="0.2" d="M494.028 691.036H487.982V697.072H494.028V691.036Z" fill="white"/>
<path opacity="0.31" d="M502.318 691.036H496.273V697.072H502.318V691.036Z" fill="white"/>
<path opacity="0.15" d="M469.156 698.969H463.111V705.004H469.156V698.969Z" fill="white"/>
<path opacity="0.33" d="M477.447 698.969H471.401V705.004H477.447V698.969Z" fill="white"/>
<path opacity="0.46" d="M485.737 698.969H479.692V705.004H485.737V698.969Z" fill="white"/>
<path opacity="0.25" d="M494.028 698.969H487.982V705.004H494.028V698.969Z" fill="white"/>
<path opacity="0.43" d="M502.318 698.969H496.273V705.004H502.318V698.969Z" fill="white"/>
<path opacity="0.4" d="M469.156 706.901H463.111V712.937H469.156V706.901Z" fill="white"/>
<path opacity="0.39" d="M477.447 706.901H471.401V712.937H477.447V706.901Z" fill="white"/>
<path opacity="0.01" d="M485.737 706.901H479.692V712.937H485.737V706.901Z" fill="white"/>
<path opacity="0.12" d="M494.028 706.901H487.982V712.937H494.028V706.901Z" fill="white"/>
<path opacity="0.07" d="M502.318 706.901H496.273V712.937H502.318V706.901Z" fill="white"/>
<path opacity="0.07" d="M469.156 714.834H463.111V720.87H469.156V714.834Z" fill="white"/>
<path opacity="0.02" d="M477.447 714.834H471.401V720.87H477.447V714.834Z" fill="white"/>
<path opacity="0.12" d="M485.737 714.834H479.692V720.87H485.737V714.834Z" fill="white"/>
<path opacity="0.23" d="M494.028 714.834H487.982V720.87H494.028V714.834Z" fill="white"/>
<path opacity="0.26" d="M502.318 714.834H496.273V720.87H502.318V714.834Z" fill="white"/>
<path opacity="0.27" d="M469.156 722.766H463.111V728.802H469.156V722.766Z" fill="white"/>
<path opacity="0.38" d="M477.447 722.766H471.401V728.802H477.447V722.766Z" fill="white"/>
<path opacity="0.05" d="M485.737 722.766H479.692V728.802H485.737V722.766Z" fill="white"/>
<path opacity="0.45" d="M494.028 722.766H487.982V728.802H494.028V722.766Z" fill="white"/>
<path opacity="0.15" d="M502.318 722.766H496.273V728.802H502.318V722.766Z" fill="white"/>
<path opacity="0.06" d="M469.156 730.699H463.111V736.734H469.156V730.699Z" fill="white"/>
<path opacity="0.47" d="M477.447 730.699H471.401V736.734H477.447V730.699Z" fill="white"/>
<path opacity="0.15" d="M485.737 730.699H479.692V736.734H485.737V730.699Z" fill="white"/>
<path opacity="0.44" d="M494.028 730.699H487.982V736.734H494.028V730.699Z" fill="white"/>
<path opacity="0.14" d="M502.318 730.699H496.273V736.734H502.318V730.699Z" fill="white"/>
<path opacity="0.15" d="M469.156 738.631H463.111V744.667H469.156V738.631Z" fill="white"/>
<path opacity="0.43" d="M477.447 738.631H471.401V744.667H477.447V738.631Z" fill="white"/>
<path opacity="0.07" d="M485.737 738.631H479.692V744.667H485.737V738.631Z" fill="white"/>
<path opacity="0.47" d="M494.028 738.631H487.982V744.667H494.028V738.631Z" fill="white"/>
<path opacity="0.11" d="M502.318 738.631H496.273V744.667H502.318V738.631Z" fill="white"/>
<path opacity="0.07" d="M469.156 746.564H463.111V752.599H469.156V746.564Z" fill="white"/>
<path opacity="0.34" d="M477.447 746.564H471.401V752.599H477.447V746.564Z" fill="white"/>
<path opacity="0.5" d="M485.737 746.564H479.692V752.599H485.737V746.564Z" fill="white"/>
<path opacity="0.36" d="M494.028 746.564H487.982V752.599H494.028V746.564Z" fill="white"/>
<path opacity="0.34" d="M502.318 746.564H496.273V752.599H502.318V746.564Z" fill="white"/>
<path opacity="0.47" d="M469.156 754.496H463.111V760.532H469.156V754.496Z" fill="white"/>
<path opacity="0.41" d="M477.447 754.496H471.401V760.532H477.447V754.496Z" fill="white"/>
<path opacity="0.3" d="M485.737 754.496H479.692V760.532H485.737V754.496Z" fill="white"/>
<path opacity="0.33" d="M494.028 754.496H487.982V760.532H494.028V754.496Z" fill="white"/>
<path opacity="0.12" d="M502.318 754.496H496.273V760.532H502.318V754.496Z" fill="white"/>
<path opacity="0.24" d="M469.156 762.428H463.111V768.464H469.156V762.428Z" fill="white"/>
<path opacity="0.29" d="M477.447 762.428H471.401V768.464H477.447V762.428Z" fill="white"/>
<path opacity="0.27" d="M494.028 762.428H487.982V768.464H494.028V762.428Z" fill="white"/>
<path opacity="0.04" d="M502.318 762.428H496.273V768.464H502.318V762.428Z" fill="white"/>
<path opacity="0.11" d="M469.156 770.361H463.111V776.396H469.156V770.361Z" fill="white"/>
<path opacity="0.05" d="M477.447 770.361H471.401V776.396H477.447V770.361Z" fill="white"/>
<path opacity="0.04" d="M485.737 770.361H479.692V776.396H485.737V770.361Z" fill="white"/>
<path opacity="0.02" d="M494.028 770.361H487.982V776.396H494.028V770.361Z" fill="white"/>
<path opacity="0.3" d="M539.453 635.337H533.408V641.373H539.453V635.337Z" fill="white"/>
<path opacity="0.72" d="M547.398 635.337H541.353V641.373H547.398V635.337Z" fill="white"/>
<path opacity="0.7" d="M555.516 635.337H549.471V641.373H555.516V635.337Z" fill="white"/>
<path opacity="0.52" d="M563.634 635.337H557.589V641.373H563.634V635.337Z" fill="white"/>
<path opacity="0.2" d="M571.752 635.337H565.706V641.373H571.752V635.337Z" fill="white"/>
<path opacity="0.32" d="M579.697 635.337H573.652V641.373H579.697V635.337Z" fill="white"/>
<path opacity="0.13" d="M587.815 635.337H581.77V641.373H587.815V635.337Z" fill="white"/>
<path opacity="0.38" d="M595.933 635.337H589.887V641.373H595.933V635.337Z" fill="white"/>
<path opacity="0.61" d="M603.878 635.337H597.833V641.373H603.878V635.337Z" fill="white"/>
<path d="M611.996 635.337H605.95V641.373H611.996V635.337Z" fill="white"/>
<path opacity="0.91" d="M620.113 635.337H614.068V641.373H620.113V635.337Z" fill="white"/>
<path opacity="0.66" d="M539.453 643.27H533.408V649.305H539.453V643.27Z" fill="white"/>
<path opacity="0.31" d="M547.398 643.27H541.353V649.305H547.398V643.27Z" fill="white"/>
<path opacity="0.95" d="M555.516 643.27H549.471V649.305H555.516V643.27Z" fill="white"/>
<path opacity="0.7" d="M563.634 643.27H557.589V649.305H563.634V643.27Z" fill="white"/>
<path opacity="0.12" d="M571.752 643.27H565.706V649.305H571.752V643.27Z" fill="white"/>
<path opacity="0.24" d="M579.697 643.27H573.652V649.305H579.697V643.27Z" fill="white"/>
<path opacity="0.66" d="M587.815 643.27H581.77V649.305H587.815V643.27Z" fill="white"/>
<path opacity="0.71" d="M595.933 643.27H589.887V649.305H595.933V643.27Z" fill="white"/>
<path opacity="0.42" d="M603.878 643.27H597.833V649.305H603.878V643.27Z" fill="white"/>
<path opacity="0.09" d="M611.996 643.27H605.95V649.305H611.996V643.27Z" fill="white"/>
<path opacity="0.32" d="M620.113 643.27H614.068V649.305H620.113V643.27Z" fill="white"/>
<path opacity="0.65" d="M539.453 651.202H533.408V657.237H539.453V651.202Z" fill="white"/>
<path d="M547.398 651.202H541.353V657.237H547.398V651.202Z" fill="white"/>
<path d="M555.516 651.202H549.471V657.237H555.516V651.202Z" fill="white"/>
<path opacity="0.71" d="M563.634 651.202H557.589V657.237H563.634V651.202Z" fill="white"/>
<path opacity="0.2" d="M571.752 651.202H565.706V657.237H571.752V651.202Z" fill="white"/>
<path opacity="0.19" d="M579.697 651.202H573.652V657.237H579.697V651.202Z" fill="white"/>
<path opacity="0.62" d="M587.815 651.202H581.77V657.237H587.815V651.202Z" fill="white"/>
<path opacity="0.93" d="M595.933 651.202H589.887V657.237H595.933V651.202Z" fill="white"/>
<path opacity="0.56" d="M603.878 651.202H597.833V657.237H603.878V651.202Z" fill="white"/>
<path opacity="0.57" d="M611.996 651.202H605.95V657.237H611.996V651.202Z" fill="white"/>
<path opacity="0.52" d="M620.113 651.202H614.068V657.237H620.113V651.202Z" fill="white"/>
<path opacity="0.74" d="M539.453 659.134H533.408V665.17H539.453V659.134Z" fill="white"/>
<path opacity="0.56" d="M547.398 659.134H541.353V665.17H547.398V659.134Z" fill="white"/>
<path opacity="0.78" d="M555.516 659.134H549.471V665.17H555.516V659.134Z" fill="white"/>
<path opacity="0.41" d="M563.634 659.134H557.589V665.17H563.634V659.134Z" fill="white"/>
<path opacity="0.14" d="M571.752 659.134H565.706V665.17H571.752V659.134Z" fill="white"/>
<path opacity="0.28" d="M579.697 659.134H573.652V665.17H579.697V659.134Z" fill="white"/>
<path opacity="0.36" d="M587.815 659.134H581.77V665.17H587.815V659.134Z" fill="white"/>
<path opacity="0.14" d="M595.933 659.134H589.887V665.17H595.933V659.134Z" fill="white"/>
<path opacity="0.5" d="M603.878 659.134H597.833V665.17H603.878V659.134Z" fill="white"/>
<path opacity="0.98" d="M611.996 659.134H605.95V665.17H611.996V659.134Z" fill="white"/>
<path opacity="0.59" d="M620.113 659.134H614.068V665.17H620.113V659.134Z" fill="white"/>
<path opacity="0.07" d="M539.453 667.066H533.408V673.102H539.453V667.066Z" fill="white"/>
<path opacity="0.1" d="M547.398 667.066H541.353V673.102H547.398V667.066Z" fill="white"/>
<path opacity="0.88" d="M555.516 667.066H549.471V673.102H555.516V667.066Z" fill="white"/>
<path opacity="0.68" d="M563.634 667.066H557.589V673.102H563.634V667.066Z" fill="white"/>
<path opacity="0.81" d="M571.752 667.066H565.706V673.102H571.752V667.066Z" fill="white"/>
<path opacity="0.62" d="M579.697 667.066H573.652V673.102H579.697V667.066Z" fill="white"/>
<path opacity="0.97" d="M587.815 667.066H581.77V673.102H587.815V667.066Z" fill="white"/>
<path opacity="0.81" d="M595.933 667.066H589.887V673.102H595.933V667.066Z" fill="white"/>
<path opacity="0.79" d="M603.878 667.066H597.833V673.102H603.878V667.066Z" fill="white"/>
<path opacity="0.03" d="M611.996 667.066H605.95V673.102H611.996V667.066Z" fill="white"/>
<path opacity="0.95" d="M620.113 667.066H614.068V673.102H620.113V667.066Z" fill="white"/>
<path opacity="0.62" d="M539.453 674.999H533.408V681.035H539.453V674.999Z" fill="white"/>
<path opacity="0.22" d="M547.398 674.999H541.353V681.035H547.398V674.999Z" fill="white"/>
<path opacity="0.42" d="M555.516 674.999H549.471V681.035H555.516V674.999Z" fill="white"/>
<path opacity="0.56" d="M563.634 674.999H557.589V681.035H563.634V674.999Z" fill="white"/>
<path opacity="0.03" d="M571.752 674.999H565.706V681.035H571.752V674.999Z" fill="white"/>
<path opacity="0.64" d="M579.697 674.999H573.652V681.035H579.697V674.999Z" fill="white"/>
<path opacity="0.82" d="M587.815 674.999H581.77V681.035H587.815V674.999Z" fill="white"/>
<path opacity="0.52" d="M595.933 674.999H589.887V681.035H595.933V674.999Z" fill="white"/>
<path opacity="0.46" d="M603.878 674.999H597.833V681.035H603.878V674.999Z" fill="white"/>
<path opacity="0.27" d="M611.996 674.999H605.95V681.035H611.996V674.999Z" fill="white"/>
<path opacity="0.46" d="M620.113 674.999H614.068V681.035H620.113V674.999Z" fill="white"/>
<path opacity="0.66" d="M539.453 683.104H533.408V689.14H539.453V683.104Z" fill="white"/>
<path opacity="0.7" d="M547.398 683.104H541.353V689.14H547.398V683.104Z" fill="white"/>
<path opacity="0.94" d="M555.516 683.104H549.471V689.14H555.516V683.104Z" fill="white"/>
<path opacity="0.5" d="M563.634 683.104H557.589V689.14H563.634V683.104Z" fill="white"/>
<path opacity="0.12" d="M571.752 683.104H565.706V689.14H571.752V683.104Z" fill="white"/>
<path opacity="0.36" d="M579.697 683.104H573.652V689.14H579.697V683.104Z" fill="white"/>
<path opacity="0.51" d="M587.815 683.104H581.77V689.14H587.815V683.104Z" fill="white"/>
<path opacity="0.37" d="M595.933 683.104H589.887V689.14H595.933V683.104Z" fill="white"/>
<path opacity="0.66" d="M603.878 683.104H597.833V689.14H603.878V683.104Z" fill="white"/>
<path opacity="0.42" d="M611.996 683.104H605.95V689.14H611.996V683.104Z" fill="white"/>
<path opacity="0.5" d="M620.113 683.104H614.068V689.14H620.113V683.104Z" fill="white"/>
<path opacity="0.52" d="M539.453 691.036H533.408V697.072H539.453V691.036Z" fill="white"/>
<path opacity="0.61" d="M547.398 691.036H541.353V697.072H547.398V691.036Z" fill="white"/>
<path opacity="0.84" d="M555.516 691.036H549.471V697.072H555.516V691.036Z" fill="white"/>
<path opacity="0.89" d="M563.634 691.036H557.589V697.072H563.634V691.036Z" fill="white"/>
<path opacity="0.33" d="M571.752 691.036H565.706V697.072H571.752V691.036Z" fill="white"/>
<path opacity="0.25" d="M579.697 691.036H573.652V697.072H579.697V691.036Z" fill="white"/>
<path opacity="0.95" d="M587.815 691.036H581.77V697.072H587.815V691.036Z" fill="white"/>
<path opacity="0.09" d="M595.933 691.036H589.887V697.072H595.933V691.036Z" fill="white"/>
<path opacity="0.44" d="M603.878 691.036H597.833V697.072H603.878V691.036Z" fill="white"/>
<path opacity="0.51" d="M611.996 691.036H605.95V697.072H611.996V691.036Z" fill="white"/>
<path opacity="0.97" d="M620.113 691.036H614.068V697.072H620.113V691.036Z" fill="white"/>
<path opacity="0.26" d="M539.453 698.969H533.408V705.004H539.453V698.969Z" fill="white"/>
<path opacity="0.92" d="M547.398 698.969H541.353V705.004H547.398V698.969Z" fill="white"/>
<path opacity="0.33" d="M555.516 698.969H549.471V705.004H555.516V698.969Z" fill="white"/>
<path opacity="0.23" d="M563.634 698.969H557.589V705.004H563.634V698.969Z" fill="white"/>
<path opacity="0.42" d="M571.752 698.969H565.706V705.004H571.752V698.969Z" fill="white"/>
<path opacity="0.57" d="M579.697 698.969H573.652V705.004H579.697V698.969Z" fill="white"/>
<path opacity="0.73" d="M587.815 698.969H581.77V705.004H587.815V698.969Z" fill="white"/>
<path opacity="0.87" d="M595.933 698.969H589.887V705.004H595.933V698.969Z" fill="white"/>
<path opacity="0.22" d="M603.878 698.969H597.833V705.004H603.878V698.969Z" fill="white"/>
<path opacity="0.89" d="M611.996 698.969H605.95V705.004H611.996V698.969Z" fill="white"/>
<path opacity="0.73" d="M620.113 698.969H614.068V705.004H620.113V698.969Z" fill="white"/>
<path opacity="0.35" d="M539.453 706.901H533.408V712.937H539.453V706.901Z" fill="white"/>
<path opacity="0.81" d="M547.398 706.901H541.353V712.937H547.398V706.901Z" fill="white"/>
<path opacity="0.56" d="M555.516 706.901H549.471V712.937H555.516V706.901Z" fill="white"/>
<path opacity="0.81" d="M563.634 706.901H557.589V712.937H563.634V706.901Z" fill="white"/>
<path opacity="0.87" d="M571.752 706.901H565.706V712.937H571.752V706.901Z" fill="white"/>
<path opacity="0.39" d="M579.697 706.901H573.652V712.937H579.697V706.901Z" fill="white"/>
<path opacity="0.31" d="M587.815 706.901H581.77V712.937H587.815V706.901Z" fill="white"/>
<path opacity="0.98" d="M595.933 706.901H589.887V712.937H595.933V706.901Z" fill="white"/>
<path opacity="0.17" d="M603.878 706.901H597.833V712.937H603.878V706.901Z" fill="white"/>
<path opacity="0.06" d="M611.996 706.901H605.95V712.937H611.996V706.901Z" fill="white"/>
<path opacity="0.57" d="M620.113 706.901H614.068V712.937H620.113V706.901Z" fill="white"/>
<path opacity="0.67" d="M539.453 714.834H533.408V720.87H539.453V714.834Z" fill="white"/>
<path opacity="0.83" d="M547.398 714.834H541.353V720.87H547.398V714.834Z" fill="white"/>
<path opacity="0.99" d="M555.516 714.834H549.471V720.87H555.516V714.834Z" fill="white"/>
<path opacity="0.62" d="M563.634 714.834H557.589V720.87H563.634V714.834Z" fill="white"/>
<path opacity="0.87" d="M571.752 714.834H565.706V720.87H571.752V714.834Z" fill="white"/>
<path opacity="0.14" d="M579.697 714.834H573.652V720.87H579.697V714.834Z" fill="white"/>
<path opacity="0.12" d="M587.815 714.834H581.77V720.87H587.815V714.834Z" fill="white"/>
<path opacity="0.11" d="M595.933 714.834H589.887V720.87H595.933V714.834Z" fill="white"/>
<path opacity="0.39" d="M603.878 714.834H597.833V720.87H603.878V714.834Z" fill="white"/>
<path opacity="0.58" d="M611.996 714.834H605.95V720.87H611.996V714.834Z" fill="white"/>
<path opacity="0.54" d="M620.113 714.834H614.068V720.87H620.113V714.834Z" fill="white"/>
<path opacity="0.99" d="M539.453 722.766H533.408V728.802H539.453V722.766Z" fill="white"/>
<path opacity="0.28" d="M547.398 722.766H541.353V728.802H547.398V722.766Z" fill="white"/>
<path opacity="0.78" d="M555.516 722.766H549.471V728.802H555.516V722.766Z" fill="white"/>
<path opacity="0.65" d="M563.634 722.766H557.589V728.802H563.634V722.766Z" fill="white"/>
<path opacity="0.32" d="M571.752 722.766H565.706V728.802H571.752V722.766Z" fill="white"/>
<path opacity="0.55" d="M579.697 722.766H573.652V728.802H579.697V722.766Z" fill="white"/>
<path opacity="0.4" d="M587.815 722.766H581.77V728.802H587.815V722.766Z" fill="white"/>
<path opacity="0.22" d="M595.933 722.766H589.887V728.802H595.933V722.766Z" fill="white"/>
<path opacity="0.87" d="M603.878 722.766H597.833V728.802H603.878V722.766Z" fill="white"/>
<path opacity="0.02" d="M611.996 722.766H605.95V728.802H611.996V722.766Z" fill="white"/>
<path opacity="0.39" d="M620.113 722.766H614.068V728.802H620.113V722.766Z" fill="white"/>
<path opacity="0.89" d="M539.453 730.699H533.408V736.734H539.453V730.699Z" fill="white"/>
<path opacity="0.97" d="M547.398 730.699H541.353V736.734H547.398V730.699Z" fill="white"/>
<path opacity="0.79" d="M555.516 730.699H549.471V736.734H555.516V730.699Z" fill="white"/>
<path opacity="0.41" d="M563.634 730.699H557.589V736.734H563.634V730.699Z" fill="white"/>
<path opacity="0.13" d="M571.752 730.699H565.706V736.734H571.752V730.699Z" fill="white"/>
<path opacity="0.9" d="M579.697 730.699H573.652V736.734H579.697V730.699Z" fill="white"/>
<path opacity="0.98" d="M587.815 730.699H581.77V736.734H587.815V730.699Z" fill="white"/>
<path opacity="0.67" d="M595.933 730.699H589.887V736.734H595.933V730.699Z" fill="white"/>
<path opacity="0.65" d="M603.878 730.699H597.833V736.734H603.878V730.699Z" fill="white"/>
<path opacity="0.89" d="M611.996 730.699H605.95V736.734H611.996V730.699Z" fill="white"/>
<path opacity="0.98" d="M620.113 730.699H614.068V736.734H620.113V730.699Z" fill="white"/>
<path opacity="0.29" d="M539.453 738.631H533.408V744.667H539.453V738.631Z" fill="white"/>
<path opacity="0.74" d="M547.398 738.631H541.353V744.667H547.398V738.631Z" fill="white"/>
<path opacity="0.64" d="M555.516 738.631H549.471V744.667H555.516V738.631Z" fill="white"/>
<path opacity="0.65" d="M563.634 738.631H557.589V744.667H563.634V738.631Z" fill="white"/>
<path opacity="0.07" d="M571.752 738.631H565.706V744.667H571.752V738.631Z" fill="white"/>
<path opacity="0.16" d="M579.697 738.631H573.652V744.667H579.697V738.631Z" fill="white"/>
<path opacity="0.84" d="M587.815 738.631H581.77V744.667H587.815V738.631Z" fill="white"/>
<path opacity="0.88" d="M595.933 738.631H589.887V744.667H595.933V738.631Z" fill="white"/>
<path opacity="0.57" d="M603.878 738.631H597.833V744.667H603.878V738.631Z" fill="white"/>
<path opacity="0.31" d="M611.996 738.631H605.95V744.667H611.996V738.631Z" fill="white"/>
<path opacity="0.03" d="M620.113 738.631H614.068V744.667H620.113V738.631Z" fill="white"/>
<path opacity="0.3" d="M539.453 746.564H533.408V752.599H539.453V746.564Z" fill="white"/>
<path opacity="0.59" d="M547.398 746.564H541.353V752.599H547.398V746.564Z" fill="white"/>
<path opacity="0.93" d="M555.516 746.564H549.471V752.599H555.516V746.564Z" fill="white"/>
<path opacity="0.06" d="M563.634 746.564H557.589V752.599H563.634V746.564Z" fill="white"/>
<path opacity="0.74" d="M571.752 746.564H565.706V752.599H571.752V746.564Z" fill="white"/>
<path opacity="0.22" d="M579.697 746.564H573.652V752.599H579.697V746.564Z" fill="white"/>
<path opacity="0.51" d="M587.815 746.564H581.77V752.599H587.815V746.564Z" fill="white"/>
<path opacity="0.7" d="M595.933 746.564H589.887V752.599H595.933V746.564Z" fill="white"/>
<path opacity="0.47" d="M603.878 746.564H597.833V752.599H603.878V746.564Z" fill="white"/>
<path opacity="0.08" d="M611.996 746.564H605.95V752.599H611.996V746.564Z" fill="white"/>
<path opacity="0.93" d="M620.113 746.564H614.068V752.599H620.113V746.564Z" fill="white"/>
<path opacity="0.81" d="M539.453 754.496H533.408V760.532H539.453V754.496Z" fill="white"/>
<path opacity="0.9" d="M547.398 754.496H541.353V760.532H547.398V754.496Z" fill="white"/>
<path opacity="0.55" d="M555.516 754.496H549.471V760.532H555.516V754.496Z" fill="white"/>
<path opacity="0.14" d="M563.634 754.496H557.589V760.532H563.634V754.496Z" fill="white"/>
<path opacity="0.66" d="M571.752 754.496H565.706V760.532H571.752V754.496Z" fill="white"/>
<path opacity="0.92" d="M579.697 754.496H573.652V760.532H579.697V754.496Z" fill="white"/>
<path opacity="0.4" d="M587.815 754.496H581.77V760.532H587.815V754.496Z" fill="white"/>
<path opacity="0.6" d="M595.933 754.496H589.887V760.532H595.933V754.496Z" fill="white"/>
<path opacity="0.99" d="M603.878 754.496H597.833V760.532H603.878V754.496Z" fill="white"/>
<path opacity="0.68" d="M611.996 754.496H605.95V760.532H611.996V754.496Z" fill="white"/>
<path opacity="0.01" d="M620.113 754.496H614.068V760.532H620.113V754.496Z" fill="white"/>
<path opacity="0.82" d="M539.453 762.428H533.408V768.464H539.453V762.428Z" fill="white"/>
<path opacity="0.92" d="M547.398 762.428H541.353V768.464H547.398V762.428Z" fill="white"/>
<path opacity="0.29" d="M555.516 762.428H549.471V768.464H555.516V762.428Z" fill="white"/>
<path opacity="0.73" d="M563.634 762.428H557.589V768.464H563.634V762.428Z" fill="white"/>
<path opacity="0.42" d="M571.752 762.428H565.706V768.464H571.752V762.428Z" fill="white"/>
<path opacity="0.06" d="M579.697 762.428H573.652V768.464H579.697V762.428Z" fill="white"/>
<path opacity="0.7" d="M587.815 762.428H581.77V768.464H587.815V762.428Z" fill="white"/>
<path opacity="0.97" d="M595.933 762.428H589.887V768.464H595.933V762.428Z" fill="white"/>
<path opacity="0.51" d="M603.878 762.428H597.833V768.464H603.878V762.428Z" fill="white"/>
<path opacity="0.69" d="M611.996 762.428H605.95V768.464H611.996V762.428Z" fill="white"/>
<path opacity="0.49" d="M620.113 762.428H614.068V768.464H620.113V762.428Z" fill="white"/>
<path opacity="0.45" d="M539.453 770.361H533.408V776.396H539.453V770.361Z" fill="white"/>
<path opacity="0.46" d="M547.398 770.361H541.353V776.396H547.398V770.361Z" fill="white"/>
<path opacity="0.04" d="M555.516 770.361H549.471V776.396H555.516V770.361Z" fill="white"/>
<path opacity="0.56" d="M563.634 770.361H557.589V776.396H563.634V770.361Z" fill="white"/>
<path opacity="0.4" d="M571.752 770.361H565.706V776.396H571.752V770.361Z" fill="white"/>
<path opacity="0.59" d="M579.697 770.361H573.652V776.396H579.697V770.361Z" fill="white"/>
<path opacity="0.82" d="M587.815 770.361H581.77V776.396H587.815V770.361Z" fill="white"/>
<path opacity="0.99" d="M595.933 770.361H589.887V776.396H595.933V770.361Z" fill="white"/>
<path opacity="0.1" d="M603.878 770.361H597.833V776.396H603.878V770.361Z" fill="white"/>
<path opacity="0.87" d="M611.996 770.361H605.95V776.396H611.996V770.361Z" fill="white"/>
<path d="M620.113 770.361H614.068V776.396H620.113V770.361Z" fill="white"/>
<path d="M437.375 596.538H380.378V774.845H437.375V596.538Z" fill="#333333"/>
<path d="M406.286 587.57H380.378V597.572H406.286V587.57Z" fill="#333333"/>
<path d="M395.404 581.707H380.378V587.57H395.404V581.707Z" fill="#333333"/>
<path opacity="0.25" d="M413.367 609.126H404.04V618.438H413.367V609.126Z" fill="white"/>
<path opacity="0.15" d="M413.367 632.061H404.04V641.373H413.367V632.061Z" fill="white"/>
<path opacity="0.19" d="M413.367 677.759H404.04V687.071H413.367V677.759Z" fill="white"/>
<path opacity="0.17" d="M413.367 700.521H404.04V709.833H413.367V700.521Z" fill="white"/>
<path opacity="0.22" d="M413.367 723.284H404.04V732.596H413.367V723.284Z" fill="white"/>
<path d="M413.367 746.219H404.04V755.531H413.367V746.219Z" fill="white"/>
<path d="M395.059 695.865H341.688V711.558H395.059V695.865Z" fill="#333333"/>
<path d="M421.658 695.865H395.059V711.558H421.658V695.865Z" fill="#4D4D4D"/>
<path d="M341.688 695.865L358.27 687.933L395.059 695.865H341.688Z" fill="#333333"/>
<path d="M358.27 687.933L395.059 695.865H421.658L358.27 687.933Z" fill="#4D4D4D"/>
<path d="M407.495 706.902H329.425V778.294H407.495V706.902Z" fill="#333333"/>
<path d="M433.403 706.902H407.495V778.294H433.403V706.902Z" fill="#4D4D4D"/>
<path opacity="0.81" d="M427.358 711.903H413.367V717.076H427.358V711.903Z" fill="white"/>
<path opacity="0.76" d="M427.358 721.387H413.367V726.56H427.358V721.387Z" fill="white"/>
<path opacity="0.32" d="M427.358 730.872H413.367V736.045H427.358V730.872Z" fill="white"/>
<path opacity="0.49" d="M427.358 740.528H413.367V745.702H427.358V740.528Z" fill="white"/>
<path opacity="0.99" d="M427.358 759.497H413.367V764.67H427.358V759.497Z" fill="white"/>
<path opacity="0.1" d="M355.852 711.903H341.861V717.076H355.852V711.903Z" fill="white"/>
<path opacity="0.04" d="M375.369 711.903H361.378V717.076H375.369V711.903Z" fill="white"/>
<path opacity="0.07" d="M395.059 711.903H381.069V717.076H395.059V711.903Z" fill="white"/>
<path opacity="0.06" d="M355.852 721.387H341.861V726.56H355.852V721.387Z" fill="white"/>
<path opacity="0.44" d="M375.369 721.387H361.378V726.56H375.369V721.387Z" fill="white"/>
<path opacity="0.24" d="M395.059 721.387H381.069V726.56H395.059V721.387Z" fill="white"/>
<path opacity="0.55" d="M355.852 730.871H341.861V736.045H355.852V730.871Z" fill="white"/>
<path opacity="0.02" d="M375.369 730.871H361.378V736.045H375.369V730.871Z" fill="white"/>
<path opacity="0.14" d="M395.059 730.871H381.069V736.045H395.059V730.871Z" fill="white"/>
<path opacity="0.43" d="M355.852 740.528H341.861V745.702H355.852V740.528Z" fill="white"/>
<path opacity="0.41" d="M375.369 740.528H361.378V745.702H375.369V740.528Z" fill="white"/>
<path opacity="0.46" d="M395.059 740.528H381.069V745.702H395.059V740.528Z" fill="white"/>
<path opacity="0.45" d="M355.852 750.013H341.861V755.186H355.852V750.013Z" fill="white"/>
<path opacity="0.33" d="M375.369 750.013H361.378V755.186H375.369V750.013Z" fill="white"/>
<path opacity="0.05" d="M395.059 750.013H381.069V755.186H395.059V750.013Z" fill="white"/>
<path opacity="0.27" d="M355.852 759.498H341.861V764.671H355.852V759.498Z" fill="white"/>
<path opacity="0.15" d="M375.369 759.498H361.378V764.671H375.369V759.498Z" fill="white"/>
<path opacity="0.7" d="M395.059 759.498H381.069V764.671H395.059V759.498Z" fill="white"/>
<path d="M27.6829 635.51H-20.6788V784.33H27.6829V635.51Z" fill="#333333"/>
<path d="M82.7806 635.51H27.8556V784.33H82.7806V635.51Z" fill="#4D4D4D"/>
<path d="M27.6829 648.099H-20.6788V650.685H27.6829V648.099Z" fill="#4D4D4D"/>
<path d="M82.7806 648.099H27.8556V650.685H82.7806V648.099Z" fill="#333333"/>
<path opacity="0.32" d="M2.63846 653.617H-2.54321V658.79H2.63846V653.617Z" fill="white"/>
<path opacity="0.25" d="M9.71997 653.617H4.53833V658.79H9.71997V653.617Z" fill="white"/>
<path opacity="0.12" d="M23.8831 653.617H18.7014V658.79H23.8831V653.617Z" fill="white"/>
<path opacity="0.22" d="M2.63846 660.687H-2.54321V665.86H2.63846V660.687Z" fill="white"/>
<path opacity="0.47" d="M9.71997 660.687H4.53833V665.86H9.71997V660.687Z" fill="white"/>
<path opacity="0.22" d="M16.8015 660.687H11.6199V665.86H16.8015V660.687Z" fill="white"/>
<path opacity="0.32" d="M23.8831 660.687H18.7014V665.86H23.8831V660.687Z" fill="white"/>
<path opacity="0.18" d="M2.63846 667.757H-2.54321V672.931H2.63846V667.757Z" fill="white"/>
<path opacity="0.28" d="M9.71997 667.757H4.53833V672.931H9.71997V667.757Z" fill="white"/>
<path opacity="0.2" d="M23.8831 667.757H18.7014V672.931H23.8831V667.757Z" fill="white"/>
<path opacity="0.33" d="M2.63846 674.827H-2.54321V680H2.63846V674.827Z" fill="white"/>
<path opacity="0.05" d="M9.71997 674.827H4.53833V680H9.71997V674.827Z" fill="white"/>
<path opacity="0.08" d="M16.8015 674.827H11.6199V680H16.8015V674.827Z" fill="white"/>
<path opacity="0.08" d="M9.71997 681.897H4.53833V687.071H9.71997V681.897Z" fill="white"/>
<path opacity="0.02" d="M16.8015 681.897H11.6199V687.071H16.8015V681.897Z" fill="white"/>
<path opacity="0.05" d="M2.63846 688.968H-2.54321V694.141H2.63846V688.968Z" fill="white"/>
<path opacity="0.2" d="M9.71997 688.968H4.53833V694.141H9.71997V688.968Z" fill="white"/>
<path opacity="0.23" d="M16.8015 688.968H11.6199V694.141H16.8015V688.968Z" fill="white"/>
<path opacity="0.14" d="M2.63846 696.038H-2.54321V701.211H2.63846V696.038Z" fill="white"/>
<path opacity="0.24" d="M16.8015 696.038H11.6199V701.211H16.8015V696.038Z" fill="white"/>
<path opacity="0.23" d="M2.63846 703.108H-2.54321V708.281H2.63846V703.108Z" fill="white"/>
<path opacity="0.02" d="M9.71997 703.108H4.53833V708.281H9.71997V703.108Z" fill="white"/>
<path opacity="0.04" d="M16.8015 703.108H11.6199V708.281H16.8015V703.108Z" fill="white"/>
<path opacity="0.3" d="M23.8831 703.108H18.7014V708.281H23.8831V703.108Z" fill="white"/>
<path opacity="0.4" d="M23.8831 710.006H18.7014V715.179H23.8831V710.006Z" fill="white"/>
<path opacity="0.12" d="M2.63846 717.076H-2.54321V722.25H2.63846V717.076Z" fill="white"/>
<path opacity="0.19" d="M16.8015 717.076H11.6199V722.25H16.8015V717.076Z" fill="white"/>
<path opacity="0.43" d="M23.8831 717.076H18.7014V722.25H23.8831V717.076Z" fill="white"/>
<path opacity="0.42" d="M9.71997 724.146H4.53833V729.32H9.71997V724.146Z" fill="white"/>
<path opacity="0.31" d="M23.8831 724.146H18.7014V729.32H23.8831V724.146Z" fill="white"/>
<path opacity="0.31" d="M9.71997 731.217H4.53833V736.39H9.71997V731.217Z" fill="white"/>
<path opacity="0.33" d="M23.8831 731.217H18.7014V736.39H23.8831V731.217Z" fill="white"/>
<path opacity="0.17" d="M9.71997 738.287H4.53833V743.46H9.71997V738.287Z" fill="white"/>
<path opacity="0.01" d="M16.8015 738.287H11.6199V743.46H16.8015V738.287Z" fill="white"/>
<path opacity="0.48" d="M23.8831 738.287H18.7014V743.46H23.8831V738.287Z" fill="white"/>
<path opacity="0.28" d="M2.63846 745.357H-2.54321V750.53H2.63846V745.357Z" fill="white"/>
<path opacity="0.02" d="M9.71997 745.357H4.53833V750.53H9.71997V745.357Z" fill="white"/>
<path opacity="0.17" d="M16.8015 745.357H11.6199V750.53H16.8015V745.357Z" fill="white"/>
<path opacity="0.42" d="M23.8831 745.357H18.7014V750.53H23.8831V745.357Z" fill="white"/>
<path opacity="0.11" d="M2.63846 752.427H-2.54321V757.601H2.63846V752.427Z" fill="white"/>
<path opacity="0.02" d="M9.71997 752.427H4.53833V757.601H9.71997V752.427Z" fill="white"/>
<path opacity="0.3" d="M23.8831 752.427H18.7014V757.601H23.8831V752.427Z" fill="white"/>
<path opacity="0.19" d="M2.63846 759.498H-2.54321V764.671H2.63846V759.498Z" fill="white"/>
<path opacity="0.05" d="M9.71997 759.498H4.53833V764.671H9.71997V759.498Z" fill="white"/>
<path opacity="0.2" d="M23.8831 759.498H18.7014V764.671H23.8831V759.498Z" fill="white"/>
<path opacity="0.27" d="M9.71997 766.568H4.53833V771.741H9.71997V766.568Z" fill="white"/>
<path opacity="0.13" d="M16.8015 766.568H11.6199V771.741H16.8015V766.568Z" fill="white"/>
<path opacity="0.46" d="M2.63846 773.638H-2.54321V778.811H2.63846V773.638Z" fill="white"/>
<path opacity="0.12" d="M9.71997 773.638H4.53833V778.811H9.71997V773.638Z" fill="white"/>
<path opacity="0.04" d="M16.8015 773.638H11.6199V778.811H16.8015V773.638Z" fill="white"/>
<path opacity="0.3" d="M23.8831 773.638H18.7014V778.811H23.8831V773.638Z" fill="white"/>
<path opacity="0.08" d="M16.8015 653.617H11.6199V658.79H16.8015V653.617Z" fill="white"/>
<path opacity="0.08" d="M16.8015 667.757H11.6199V672.931H16.8015V667.757Z" fill="white"/>
<path opacity="0.01" d="M23.8831 674.827H18.7014V680H23.8831V674.827Z" fill="white"/>
<path opacity="0.15" d="M2.63846 681.897H-2.54321V687.071H2.63846V681.897Z" fill="white"/>
<path opacity="0.12" d="M23.8831 681.897H18.7014V687.071H23.8831V681.897Z" fill="white"/>
<path opacity="0.13" d="M9.71997 696.038H4.53833V701.211H9.71997V696.038Z" fill="white"/>
<path opacity="0.07" d="M23.8831 696.038H18.7014V701.211H23.8831V696.038Z" fill="white"/>
<path opacity="0.02" d="M2.63846 710.006H-2.54321V715.179H2.63846V710.006Z" fill="white"/>
<path opacity="0.02" d="M9.71997 710.006H4.53833V715.179H9.71997V710.006Z" fill="white"/>
<path opacity="0.14" d="M16.8015 710.006H11.6199V715.179H16.8015V710.006Z" fill="white"/>
<path opacity="0.09" d="M2.63846 724.146H-2.54321V729.32H2.63846V724.146Z" fill="white"/>
<path opacity="0.02" d="M16.8015 724.146H11.6199V729.32H16.8015V724.146Z" fill="white"/>
<path opacity="0.19" d="M2.63846 731.217H-2.54321V736.39H2.63846V731.217Z" fill="white"/>
<path opacity="0.06" d="M16.8015 731.217H11.6199V736.39H16.8015V731.217Z" fill="white"/>
<path opacity="0.16" d="M2.63846 738.287H-2.54321V743.46H2.63846V738.287Z" fill="white"/>
<path opacity="0.04" d="M16.8015 752.427H11.6199V757.601H16.8015V752.427Z" fill="white"/>
<path opacity="0.04" d="M16.8015 759.498H11.6199V764.671H16.8015V759.498Z" fill="white"/>
<path opacity="0.18" d="M23.8831 766.568H18.7014V771.741H23.8831V766.568Z" fill="white"/>
<g opacity="0.7">
<path opacity="0.7" d="M38.2188 650.685H32.8645V777.777H38.2188V650.685Z" fill="#E6E6E6"/>
<path opacity="0.7" d="M47.373 650.685H42.0187V777.777H47.373V650.685Z" fill="#E6E6E6"/>
<path opacity="0.7" d="M56.6999 650.685H51.3456V777.777H56.6999V650.685Z" fill="#E6E6E6"/>
<path opacity="0.7" d="M66.0268 650.685H60.6725V777.777H66.0268V650.685Z" fill="#E6E6E6"/>
<path opacity="0.7" d="M75.3537 650.685H69.9994V777.777H75.3537V650.685Z" fill="#E6E6E6"/>
</g>
<path d="M110.416 777.777H2.98389L110.416 684.312V777.777Z" fill="#333333"/>
<path d="M101.262 761.222H64.2997V781.915H101.262V761.222Z" fill="#4D4D4D"/>
<path d="M98.4983 756.394H67.0632V766.051H98.4983V756.394Z" fill="#4D4D4D"/>
<path d="M94.8712 759.325H70.5176L78.9809 745.185H86.4078L94.8712 759.325Z" fill="#4D4D4D"/>
<path d="M91.4168 765.361H74.1448V777.949H91.4168V765.361Z" fill="white"/>
<path d="M93.4893 770.362H72.072V772.948H93.4893V770.362Z" fill="#4D4D4D"/>
<path d="M266.21 795.194C266.728 808.644 256.365 820.198 242.72 820.715C229.248 821.233 217.675 810.714 217.157 797.263C216.639 783.812 227.002 772.259 240.647 771.741C254.119 771.224 265.519 781.743 266.21 795.194Z" fill="#333333"/>
<path d="M262.064 788.468C262.41 796.228 256.365 802.781 248.592 803.126C240.82 803.471 234.257 797.435 233.911 789.675C233.566 781.915 239.611 775.362 247.383 775.017C255.156 774.673 261.719 780.708 262.064 788.468Z" fill="#4D4D4D"/>
<path d="M19.5651 769.844C19.5651 773.121 16.8015 775.88 13.5198 775.88C10.2381 775.88 7.47461 773.121 7.47461 769.844C7.47461 766.568 10.2381 763.809 13.5198 763.809C16.8015 763.809 19.5651 766.396 19.5651 769.844Z" fill="#333333"/>
<path d="M21.6377 775.88C21.6377 780.364 18.0106 783.985 13.5198 783.985C9.02912 783.985 5.40198 780.364 5.40198 775.88C5.40198 771.396 9.02912 767.775 13.5198 767.775C18.0106 767.775 21.6377 771.396 21.6377 775.88Z" fill="#333333"/>
<path d="M17.4924 764.671C17.4924 766.913 15.7652 768.81 13.5199 768.81C11.2745 768.81 9.5473 766.913 9.5473 764.671C9.5473 762.429 11.2745 760.532 13.5199 760.532C15.7652 760.532 17.4924 762.429 17.4924 764.671Z" fill="#333333"/>
<path d="M18.7014 769.844C18.7014 771.741 17.147 773.293 15.2471 773.293C13.3471 773.293 11.7927 771.741 11.7927 769.844C11.7927 767.947 13.3471 766.396 15.2471 766.396C17.147 766.396 18.7014 767.947 18.7014 769.844Z" fill="#4D4D4D"/>
<path d="M16.9742 765.188C16.9742 766.568 15.7652 767.775 14.3835 767.775C13.0017 767.775 11.7927 766.568 11.7927 765.188C11.7927 763.809 13.0017 762.602 14.3835 762.602C15.7652 762.429 16.9742 763.636 16.9742 765.188Z" fill="#4D4D4D"/>
<path d="M134.77 782.433C134.77 786.744 131.142 790.365 126.824 790.365C122.506 790.365 118.879 786.744 118.879 782.433C118.879 778.121 122.334 774.5 126.824 774.5C131.142 774.5 134.77 778.121 134.77 782.433Z" fill="#333333"/>
<path d="M132.006 775.707C132.006 778.639 129.761 781.053 126.824 781.053C123.888 781.053 121.643 778.639 121.643 775.707C121.643 772.776 123.888 770.362 126.824 770.362C129.588 770.362 132.006 772.776 132.006 775.707Z" fill="#333333"/>
<path d="M131.315 776.225C131.315 778.121 129.761 779.673 127.861 779.673C125.961 779.673 124.406 778.121 124.406 776.225C124.406 774.328 125.961 772.776 127.861 772.776C129.761 772.776 131.315 774.328 131.315 776.225Z" fill="#4D4D4D"/>
<path d="M124.061 788.296C123.197 796.573 115.77 802.436 107.653 801.574C99.3619 800.712 93.4894 793.297 94.353 785.192C95.2166 776.915 102.644 771.051 110.761 771.914C118.879 772.776 124.925 780.019 124.061 788.296Z" fill="#333333"/>
<path d="M120.261 775.018C119.743 780.536 114.907 784.675 109.38 784.157C104.025 783.64 100.053 778.639 100.571 773.121C101.089 767.603 105.925 763.464 111.452 763.981C116.979 764.499 120.779 769.5 120.261 775.018Z" fill="#333333"/>
<path d="M118.879 776.052C118.534 779.674 115.252 782.26 111.798 781.916C108.171 781.571 105.58 778.294 105.925 774.845C106.271 771.224 109.552 768.637 113.007 768.982C116.634 769.327 119.225 772.604 118.879 776.052Z" fill="#4D4D4D"/>
<path d="M202.303 781.053C202.303 788.641 196.258 794.676 188.658 794.676C181.058 794.676 175.013 788.641 175.013 781.053C175.013 773.466 181.058 767.43 188.658 767.43C196.085 767.43 202.303 773.466 202.303 781.053Z" fill="#333333"/>
<path d="M197.467 769.327C197.467 774.5 193.494 778.639 188.486 778.639C183.477 778.639 179.504 774.5 179.504 769.327C179.504 764.154 183.477 760.015 188.486 760.015C193.494 760.187 197.467 764.326 197.467 769.327Z" fill="#333333"/>
<path d="M200.231 781.053C200.231 785.364 196.776 788.986 192.285 788.986C187.967 788.986 184.34 785.537 184.34 781.053C184.34 776.742 187.795 773.121 192.285 773.121C196.603 773.293 200.231 776.742 200.231 781.053Z" fill="#4D4D4D"/>
<path d="M196.258 770.534C196.258 773.81 193.667 776.569 190.213 776.569C186.931 776.569 184.168 773.983 184.168 770.534C184.168 767.257 186.758 764.671 190.213 764.671C193.667 764.498 196.258 767.257 196.258 770.534Z" fill="#4D4D4D"/>
<path d="M172.077 792.434C172.077 802.091 164.132 810.023 154.46 810.023C144.787 810.023 136.842 802.091 136.842 792.434C136.842 782.777 144.787 774.845 154.46 774.845C164.132 774.845 172.077 782.605 172.077 792.434Z" fill="#333333"/>
<path d="M166.032 777.259C166.032 783.812 160.85 789.158 154.46 789.158C148.069 789.158 142.887 783.812 142.887 777.259C142.887 770.706 148.069 765.361 154.46 765.361C160.85 765.361 166.032 770.706 166.032 777.259Z" fill="#333333"/>
<path d="M164.477 778.811C164.477 783.122 161.023 786.399 156.705 786.399C152.387 786.399 148.932 782.95 148.932 778.811C148.932 774.5 152.387 771.051 156.705 771.051C161.023 771.051 164.477 774.5 164.477 778.811Z" fill="#4D4D4D"/>
<path d="M214.739 779.329C214.739 781.398 213.185 782.95 211.285 782.95C209.385 782.95 207.83 781.398 207.83 779.329C207.83 777.259 209.385 775.707 211.285 775.707C213.185 775.707 214.739 777.259 214.739 779.329Z" fill="#333333"/>
<path d="M289.009 775.018C289.009 781.743 283.654 787.089 276.918 787.089C270.182 787.089 264.828 781.743 264.828 775.018C264.828 768.293 270.182 762.947 276.918 762.947C283.654 762.947 289.009 768.293 289.009 775.018Z" fill="#333333"/>
<path d="M293.154 787.089C293.154 796.056 285.9 803.299 276.918 803.299C267.937 803.299 260.683 796.056 260.683 787.089C260.683 778.122 267.937 770.879 276.918 770.879C285.9 770.879 293.154 778.122 293.154 787.089Z" fill="#333333"/>
<path d="M284.864 764.671C284.864 769.155 281.236 772.948 276.918 772.948C272.6 772.948 268.973 769.327 268.973 764.671C268.973 760.188 272.6 756.394 276.918 756.394C281.236 756.394 284.864 760.188 284.864 764.671Z" fill="#333333"/>
<path d="M287.109 775.018C287.109 778.812 284 781.916 280.2 781.916C276.4 781.916 273.291 778.812 273.291 775.018C273.291 771.224 276.4 768.12 280.2 768.12C284 768.12 287.109 771.224 287.109 775.018Z" fill="#4D4D4D"/>
<path d="M283.827 765.706C283.827 768.638 281.409 771.052 278.473 771.052C275.537 771.052 273.119 768.638 273.119 765.706C273.119 762.775 275.537 760.36 278.473 760.36C281.409 760.36 283.827 762.775 283.827 765.706Z" fill="#4D4D4D"/>
<path d="M334.089 790.193C334.089 799.16 326.835 806.403 317.853 806.403C308.872 806.403 301.617 799.16 301.617 790.193C301.617 781.226 308.872 773.983 317.853 773.983C326.835 774.156 334.089 781.398 334.089 790.193Z" fill="#333333"/>
<path d="M328.389 776.397C328.389 782.433 323.553 787.434 317.853 787.434C311.98 787.434 307.144 782.605 307.144 776.397C307.144 770.362 311.98 765.533 317.853 765.533C323.725 765.533 328.389 770.362 328.389 776.397Z" fill="#333333"/>
<path d="M327.007 777.777C327.007 781.743 323.898 784.847 319.926 784.847C315.953 784.847 312.844 781.743 312.844 777.777C312.844 773.811 315.953 770.707 319.926 770.707C323.898 770.707 327.007 773.811 327.007 777.777Z" fill="#4D4D4D"/>
<path d="M598.351 796.746C598.351 811.576 586.433 823.475 571.579 823.475C556.725 823.475 544.807 811.576 544.807 796.746C544.807 781.916 556.725 770.017 571.579 770.017C586.433 770.017 598.351 782.088 598.351 796.746Z" fill="#333333"/>
<path d="M594.378 789.331C594.378 797.781 587.469 804.678 579.006 804.678C570.543 804.678 563.634 797.781 563.634 789.331C563.634 780.881 570.543 773.983 579.006 773.983C587.469 773.983 594.378 780.881 594.378 789.331Z" fill="#4D4D4D"/>
<path d="M632.722 785.192C632.722 797.608 622.532 807.782 610.096 807.782C597.66 807.782 587.469 797.608 587.469 785.192C587.469 772.776 597.66 762.602 610.096 762.602C622.704 762.602 632.722 772.604 632.722 785.192Z" fill="#333333"/>
<path d="M629.268 778.812C629.268 786.054 623.395 791.745 616.314 791.745C609.059 791.745 603.36 785.882 603.36 778.812C603.36 771.741 609.232 765.878 616.314 765.878C623.395 765.878 629.268 771.741 629.268 778.812Z" fill="#4D4D4D"/>
<path d="M575.034 788.813C575.034 801.229 564.843 811.404 552.407 811.404C539.971 811.404 529.781 801.229 529.781 788.813C529.781 776.397 539.971 766.223 552.407 766.223C565.016 766.223 575.034 776.225 575.034 788.813Z" fill="#333333"/>
<path d="M571.579 782.433C571.579 789.675 565.707 795.366 558.625 795.366C551.544 795.366 545.671 789.503 545.671 782.433C545.671 775.19 551.544 769.5 558.625 769.5C565.707 769.5 571.579 775.19 571.579 782.433Z" fill="#4D4D4D"/>
<path d="M505.255 793.987C505.255 806.403 495.064 816.577 482.628 816.577C470.192 816.577 460.002 806.403 460.002 793.987C460.002 781.571 470.192 771.397 482.628 771.397C495.237 771.397 505.255 781.571 505.255 793.987Z" fill="#333333"/>
<path d="M501.8 787.607C501.8 794.849 495.928 800.54 488.846 800.54C481.592 800.54 475.892 794.677 475.892 787.607C475.892 780.364 481.765 774.673 488.846 774.673C495.928 774.673 501.8 780.536 501.8 787.607Z" fill="#4D4D4D"/>
<path d="M477.965 790.193C477.965 802.609 467.774 812.783 455.338 812.783C442.902 812.783 432.712 802.609 432.712 790.193C432.712 777.777 442.902 767.603 455.338 767.603C467.774 767.603 477.965 777.605 477.965 790.193Z" fill="#333333"/>
<path d="M474.51 783.813C474.51 791.055 468.638 796.746 461.556 796.746C454.302 796.746 448.602 790.883 448.602 783.813C448.602 776.57 454.475 770.879 461.556 770.879C468.638 770.879 474.51 776.57 474.51 783.813Z" fill="#4D4D4D"/>
<path d="M495.582 786.571C495.582 793.814 489.71 799.505 482.628 799.505C475.374 799.505 469.674 793.641 469.674 786.571C469.674 779.329 475.547 773.638 482.628 773.638C489.882 773.638 495.582 779.501 495.582 786.571Z" fill="#4D4D4D"/>
<path d="M399.032 787.606C399.032 795.711 392.468 802.436 384.178 802.436C376.06 802.436 369.324 795.883 369.324 787.606C369.324 779.501 375.887 772.776 384.178 772.776C392.468 772.948 399.032 779.501 399.032 787.606Z" fill="#333333"/>
<path d="M396.786 783.467C396.786 788.123 392.986 791.917 388.323 791.917C383.66 791.917 379.86 788.123 379.86 783.467C379.86 778.811 383.66 775.017 388.323 775.017C392.986 775.017 396.786 778.811 396.786 783.467Z" fill="#4D4D4D"/>
<path d="M10.929 775.88C10.929 782.778 5.40198 788.296 -1.50683 788.296C-8.41564 788.296 -13.9427 782.778 -13.9427 775.88C-13.9427 768.982 -8.41564 763.464 -1.50683 763.464C5.22926 763.291 10.929 768.982 10.929 775.88Z" fill="#333333"/>
<path d="M15.0743 788.296C15.0743 797.608 7.64736 805.023 -1.67952 805.023C-11.0064 805.023 -18.4333 797.608 -18.4333 788.296C-18.4333 778.984 -11.0064 771.569 -1.67952 771.569C7.64736 771.569 15.0743 778.984 15.0743 788.296Z" fill="#333333"/>
<path d="M6.61105 765.188C6.61105 769.844 2.98392 773.638 -1.67952 773.638C-6.17024 773.638 -9.97009 769.844 -9.97009 765.188C-9.97009 760.532 -6.34296 756.739 -1.67952 756.739C2.98392 756.739 6.61105 760.532 6.61105 765.188Z" fill="#333333"/>
<path d="M9.02902 775.88C9.02902 779.846 5.74734 783.122 1.77477 783.122C-2.19781 783.122 -5.47949 779.846 -5.47949 775.88C-5.47949 771.913 -2.19781 768.637 1.77477 768.637C5.74734 768.637 9.02902 771.913 9.02902 775.88Z" fill="#4D4D4D"/>
<path d="M5.57465 766.223C5.57465 769.155 3.15656 771.741 0.0475769 771.741C-2.88868 771.741 -5.47949 769.327 -5.47949 766.223C-5.47949 763.292 -3.0614 760.705 0.0475769 760.705C2.98384 760.705 5.57465 763.119 5.57465 766.223Z" fill="#4D4D4D"/>
<path d="M69.8267 780.709C69.8267 786.227 65.336 790.711 59.8089 790.711C54.2818 790.711 49.7911 786.227 49.7911 780.709C49.7911 775.191 54.2818 770.707 59.8089 770.707C65.336 770.707 69.8267 775.191 69.8267 780.709Z" fill="#333333"/>
<path d="M66.3723 772.086C66.3723 775.88 63.436 778.984 59.8089 778.984C56.1817 778.984 53.2455 775.88 53.2455 772.086C53.2455 768.293 56.1817 765.189 59.8089 765.189C63.436 765.361 66.3723 768.293 66.3723 772.086Z" fill="#333333"/>
<path d="M68.2722 780.709C68.2722 783.985 65.6814 786.572 62.3997 786.572C59.118 786.572 56.5272 783.985 56.5272 780.709C56.5272 777.605 59.118 775.018 62.3997 775.018C65.6814 774.845 68.2722 777.432 68.2722 780.709Z" fill="#4D4D4D"/>
<path d="M65.5087 772.949C65.5087 775.363 63.6088 777.26 61.1907 777.26C58.7726 777.26 56.8727 775.363 56.8727 772.949C56.8727 770.534 58.7726 768.638 61.1907 768.638C63.6088 768.465 65.5087 770.534 65.5087 772.949Z" fill="#4D4D4D"/>
</g>
</g>
<defs>
<clipPath id="clip0">
<rect x="-396" width="1127" height="776" fill="white"/>
</clipPath>
</defs>
</svg>
